<svg width="31" height="31" viewBox="0 0 31 31" fill="none" xmlns="http://www.w3.org/2000/svg">
<path d="M15.5 6.20001C13.8835 6.20206 12.3337 6.84516 11.1906 7.98825C10.0475 9.13135 9.40439 10.6811 9.40234 12.2977H12.5023C12.5023 10.6439 13.8477 9.30001 15.5 9.30001C17.1523 9.30001 18.4977 10.6439 18.4977 12.2977C18.4977 13.2246 17.7522 13.8973 16.6129 14.818C16.2408 15.1096 15.8833 15.4194 15.5419 15.7465C13.995 17.2918 13.95 18.9333 13.95 19.1162V20.15H17.05L17.0485 19.1689C17.05 19.1441 17.0996 18.5706 17.732 17.9397C17.9645 17.7072 18.2575 17.4747 18.5613 17.2298C19.7687 16.2518 21.5962 14.7746 21.5962 12.2977C21.595 10.6811 20.9523 9.13112 19.8094 7.98789C18.6665 6.84467 17.1166 6.20165 15.5 6.20001ZM13.95 21.7H17.05V24.8H13.95V21.7Z" fill="white"/>
<path d="M15.5 0C6.9533 0 0 6.9533 0 15.5C0 24.0467 6.9533 31 15.5 31C24.0467 31 31 24.0467 31 15.5C31 6.9533 24.0467 0 15.5 0ZM15.5 27.9C8.66295 27.9 3.1 22.337 3.1 15.5C3.1 8.66295 8.66295 3.1 15.5 3.1C22.337 3.1 27.9 8.66295 27.9 15.5C27.9 22.337 22.337 27.9 15.5 27.9Z" fill="white"/>
</svg>
