<svg width="31" height="31" viewBox="0 0 31 31" fill="none" xmlns="http://www.w3.org/2000/svg">
<path fill-rule="evenodd" clip-rule="evenodd" d="M15.5 31C24.0604 31 31 24.0604 31 15.5C31 6.93959 24.0604 0 15.5 0C6.93959 0 0 6.93959 0 15.5C0 24.0604 6.93959 31 15.5 31ZM15.5 28C22.4036 28 28 22.4036 28 15.5C28 8.59644 22.4036 3 15.5 3C8.59644 3 3 8.59644 3 15.5C3 22.4036 8.59644 28 15.5 28Z" fill="white"/>
<path d="M22.5322 10.8345C21.904 9.59598 20.0943 8.58264 17.9893 9.17263C16.9835 9.45174 16.1059 10.0503 15.4999 10.8705C14.8939 10.0503 14.0163 9.45174 13.0105 9.17263C10.9008 8.59164 9.09583 9.59598 8.46761 10.8345C7.58623 12.5685 7.95191 14.5186 9.55527 16.6309C10.8117 18.2837 12.6073 19.9591 15.2139 21.9048C15.2963 21.9665 15.3978 22 15.5022 22C15.6067 22 15.7082 21.9665 15.7906 21.9048C18.3925 19.9636 20.1928 18.3017 21.4492 16.6309C23.0479 14.5186 23.4136 12.5685 22.5322 10.8345V10.8345Z" fill="white"/>
</svg>
